<svg width="20" height="20" viewBox="0 0 20 20" fill="none" xmlns="http://www.w3.org/2000/svg">
<g clip-path="url(#clip0_48_66)">
<path d="M11.6754 19.1666C11.3461 19.1665 11.0243 19.0591 10.7506 18.8579C10.4768 18.6567 10.2635 18.3707 10.1375 18.0362C10.0115 17.7016 9.97852 17.3335 10.0427 16.9784C10.107 16.6232 10.2655 16.297 10.4983 16.0409L15.9811 10.0112L10.4983 3.98141C10.3392 3.8125 10.2124 3.61045 10.1251 3.38705C10.0379 3.16365 9.99193 2.92338 9.99001 2.68025C9.98809 2.43712 10.0302 2.196 10.1139 1.97097C10.1977 1.74593 10.3213 1.54149 10.4776 1.36956C10.6339 1.19764 10.8198 1.06167 11.0245 0.969606C11.2291 0.877537 11.4483 0.831208 11.6694 0.833321C11.8905 0.835434 12.109 0.885947 12.3121 0.981912C12.5152 1.07788 12.699 1.21737 12.8525 1.39226L19.5125 8.71659C19.8247 9.05997 20 9.52563 20 10.0112C20 10.4967 19.8247 10.9624 19.5125 11.3057L12.8525 18.6301C12.5404 18.9735 12.1169 19.1665 11.6754 19.1666Z" fill="#1F2A37"/>
<path d="M1.68545 19.1666C1.3562 19.1665 1.03436 19.0591 0.760617 18.8579C0.486876 18.6567 0.273525 18.3707 0.147535 18.0362C0.0215454 17.7016 -0.0114269 17.3335 0.0527877 16.9784C0.117002 16.6232 0.275521 16.297 0.508303 16.0409L5.99112 10.0112L0.508303 3.98141C0.349279 3.8125 0.222436 3.61045 0.135175 3.38705C0.0479149 3.16365 0.00198396 2.92338 6.28652e-05 2.68025C-0.00185823 2.43712 0.0402685 2.196 0.123986 1.97097C0.207703 1.74593 0.331334 1.54149 0.487664 1.36956C0.643995 1.19764 0.829895 1.06167 1.03452 0.969606C1.23914 0.877537 1.45838 0.831208 1.67946 0.833321C1.90054 0.835434 2.11902 0.885947 2.32215 0.981912C2.52529 1.07788 2.70901 1.21737 2.8626 1.39226L9.52257 8.71659C9.8347 9.05997 10.0101 9.52563 10.0101 10.0112C10.0101 10.4967 9.8347 10.9624 9.52257 11.3057L2.8626 18.6301C2.55043 18.9735 2.127 19.1665 1.68545 19.1666Z" fill="#1F2A37"/>
</g>
<defs>
<clipPath id="clip0_48_66">
<rect width="20" height="20" fill="white"/>
</clipPath>
</defs>
</svg>
