<svg width="80" height="40" viewBox="0 0 80 40" fill="none" xmlns="http://www.w3.org/2000/svg">
<rect x="1" y="1" width="78" height="38" rx="19" stroke="white" stroke-width="2"/>
<path d="M48.5715 18.5172H34.878L38.1535 15.0784C38.29 14.9401 38.3988 14.7746 38.4737 14.5916C38.5485 14.4087 38.5879 14.2119 38.5896 14.0127C38.5912 13.8136 38.5551 13.6161 38.4832 13.4318C38.4114 13.2475 38.3054 13.0801 38.1712 12.9393C38.0371 12.7984 37.8776 12.6871 37.7021 12.6117C37.5265 12.5363 37.3384 12.4983 37.1487 12.5001C36.959 12.5018 36.7716 12.5432 36.5973 12.6218C36.423 12.7004 36.2654 12.8146 36.1336 12.9578L30.4197 18.9566C30.2866 19.096 30.1811 19.2614 30.1091 19.4436C30.0371 19.6258 30 19.8212 30 20.0184C30 20.2157 30.0371 20.411 30.1091 20.5932C30.1811 20.7754 30.2866 20.9409 30.4197 21.0802L36.1336 27.079C36.4031 27.3522 36.7639 27.5034 37.1384 27.4999C37.513 27.4965 37.8713 27.3388 38.1361 27.0607C38.401 26.7827 38.5512 26.4065 38.5545 26.0133C38.5577 25.6201 38.4137 25.2413 38.1535 24.9584L34.878 21.5166H48.5715C48.9504 21.5166 49.3137 21.3586 49.5816 21.0774C49.8495 20.7961 50 20.4147 50 20.0169C50 19.6192 49.8495 19.2377 49.5816 18.9565C49.3137 18.6752 48.9504 18.5172 48.5715 18.5172Z" fill="white"/>
</svg>
