<svg width="681" height="432" viewBox="0 0 681 432" fill="none" xmlns="http://www.w3.org/2000/svg">
<rect opacity="0.2" x="338" width="100" height="382" fill="url(#paint0_linear_44_1517)"/>
<path d="M96 193.457L388 102.229L680 11" stroke="#2180FF" stroke-width="3" stroke-linejoin="round"/>
<path d="M96 300.863L680 33.4573" stroke="#FF5656" stroke-width="3" stroke-linejoin="round"/>
<path d="M49.5814 383.762C49.5814 384.322 50.0108 384.812 50.8694 385.232V382.474C50.4774 382.539 50.1648 382.689 49.9314 382.922C49.6981 383.155 49.5814 383.435 49.5814 383.762ZM53.2214 388.48C53.2214 387.901 52.7921 387.416 51.9334 387.024V389.922C52.7921 389.726 53.2214 389.245 53.2214 388.48ZM51.9334 391.182V392.4H50.8694V391.196C50.1601 391.103 49.5394 390.827 49.0074 390.37C48.4754 389.913 48.1208 389.334 47.9434 388.634L49.0914 388.172C49.2034 388.62 49.4181 389.007 49.7354 389.334C50.0621 389.651 50.4401 389.857 50.8694 389.95V386.59C49.9361 386.217 49.2734 385.806 48.8814 385.358C48.4894 384.901 48.2934 384.369 48.2934 383.762C48.2934 383.099 48.5314 382.53 49.0074 382.054C49.4834 381.569 50.1041 381.289 50.8694 381.214V380.024H51.9334V381.256C52.5121 381.349 53.0114 381.569 53.4314 381.914C53.8608 382.259 54.1501 382.665 54.2994 383.132L53.1514 383.622C52.9834 383.043 52.5774 382.675 51.9334 382.516V385.666C52.8854 386.067 53.5528 386.483 53.9354 386.912C54.3181 387.341 54.5094 387.855 54.5094 388.452C54.5094 389.189 54.2761 389.801 53.8094 390.286C53.3521 390.762 52.7268 391.061 51.9334 391.182ZM55.6883 386.212C55.6883 384.756 56.0476 383.557 56.7663 382.614C57.4849 381.671 58.4089 381.2 59.5383 381.2C60.6676 381.2 61.5916 381.676 62.3103 382.628C63.0289 383.571 63.3883 384.765 63.3883 386.212C63.3883 387.649 63.0289 388.849 62.3103 389.81C61.5916 390.753 60.6676 391.224 59.5383 391.224C58.4089 391.224 57.4849 390.753 56.7663 389.81C56.0476 388.849 55.6883 387.649 55.6883 386.212ZM62.0723 386.212C62.0723 385.111 61.8389 384.205 61.3723 383.496C60.9149 382.787 60.3036 382.432 59.5383 382.432C58.7729 382.432 58.1616 382.787 57.7043 383.496C57.2376 384.205 57.0043 385.111 57.0043 386.212C57.0043 387.313 57.2376 388.223 57.7043 388.942C58.1616 389.642 58.7729 389.992 59.5383 389.992C60.3036 389.992 60.9149 389.637 61.3723 388.928C61.8389 388.209 62.0723 387.304 62.0723 386.212Z" fill="#6B7280"/>
<line x1="96" y1="386" x2="680" y2="386" stroke="#E5E7EB"/>
<path d="M20.7064 289.762C20.7064 290.322 21.1358 290.812 21.9944 291.232V288.474C21.6024 288.539 21.2898 288.689 21.0564 288.922C20.8231 289.155 20.7064 289.435 20.7064 289.762ZM24.3464 294.48C24.3464 293.901 23.9171 293.416 23.0584 293.024V295.922C23.9171 295.726 24.3464 295.245 24.3464 294.48ZM23.0584 297.182V298.4H21.9944V297.196C21.2851 297.103 20.6644 296.827 20.1324 296.37C19.6004 295.913 19.2458 295.334 19.0684 294.634L20.2164 294.172C20.3284 294.62 20.5431 295.007 20.8604 295.334C21.1871 295.651 21.5651 295.857 21.9944 295.95V292.59C21.0611 292.217 20.3984 291.806 20.0064 291.358C19.6144 290.901 19.4184 290.369 19.4184 289.762C19.4184 289.099 19.6564 288.53 20.1324 288.054C20.6084 287.569 21.2291 287.289 21.9944 287.214V286.024H23.0584V287.256C23.6371 287.349 24.1364 287.569 24.5564 287.914C24.9858 288.259 25.2751 288.665 25.4244 289.132L24.2764 289.622C24.1084 289.043 23.7024 288.675 23.0584 288.516V291.666C24.0104 292.067 24.6778 292.483 25.0604 292.912C25.4431 293.341 25.6344 293.855 25.6344 294.452C25.6344 295.189 25.4011 295.801 24.9344 296.286C24.4771 296.762 23.8518 297.061 23.0584 297.182ZM33.2953 294.004C33.2953 294.919 32.9779 295.684 32.3433 296.3C31.7086 296.916 30.9246 297.224 29.9913 297.224C29.2446 297.224 28.5679 296.991 27.9613 296.524C27.3546 296.057 26.9533 295.427 26.7573 294.634L27.9053 294.172C28.0453 294.732 28.2973 295.175 28.6613 295.502C29.0346 295.829 29.4686 295.992 29.9633 295.992C30.5606 295.992 31.0459 295.81 31.4193 295.446C31.8019 295.073 31.9933 294.597 31.9933 294.018C31.9933 293.43 31.8019 292.949 31.4193 292.576C31.0459 292.203 30.5653 292.016 29.9773 292.016C29.2959 292.016 28.7593 292.291 28.3673 292.842L27.0653 292.282L27.6813 287.424H32.7073V288.656H28.7593L28.4093 291.4L28.4653 291.414C28.9413 291.031 29.5199 290.84 30.2013 290.84C31.0599 290.84 31.7879 291.143 32.3853 291.75C32.9919 292.357 33.2953 293.108 33.2953 294.004ZM35.1809 298.568L34.5789 298.176L35.3349 297C35.1389 296.963 34.9709 296.865 34.8309 296.706C34.7002 296.547 34.6349 296.356 34.6349 296.132C34.6349 295.861 34.7282 295.637 34.9149 295.46C35.1016 295.273 35.3256 295.18 35.5869 295.18C35.8576 295.18 36.0816 295.273 36.2589 295.46C36.4456 295.637 36.5389 295.861 36.5389 296.132C36.5389 296.384 36.4456 296.659 36.2589 296.958L35.1809 298.568ZM37.8328 292.212C37.8328 290.756 38.1921 289.557 38.9108 288.614C39.6295 287.671 40.5535 287.2 41.6828 287.2C42.8121 287.2 43.7361 287.676 44.4548 288.628C45.1735 289.571 45.5328 290.765 45.5328 292.212C45.5328 293.649 45.1735 294.849 44.4548 295.81C43.7361 296.753 42.8121 297.224 41.6828 297.224C40.5535 297.224 39.6295 296.753 38.9108 295.81C38.1921 294.849 37.8328 293.649 37.8328 292.212ZM44.2168 292.212C44.2168 291.111 43.9835 290.205 43.5168 289.496C43.0595 288.787 42.4481 288.432 41.6828 288.432C40.9175 288.432 40.3061 288.787 39.8488 289.496C39.3821 290.205 39.1488 291.111 39.1488 292.212C39.1488 293.313 39.3821 294.223 39.8488 294.942C40.3061 295.642 40.9175 295.992 41.6828 295.992C42.4481 295.992 43.0595 295.637 43.5168 294.928C43.9835 294.209 44.2168 293.304 44.2168 292.212ZM46.7605 292.212C46.7605 290.756 47.1199 289.557 47.8385 288.614C48.5572 287.671 49.4812 287.2 50.6105 287.2C51.7399 287.2 52.6639 287.676 53.3825 288.628C54.1012 289.571 54.4605 290.765 54.4605 292.212C54.4605 293.649 54.1012 294.849 53.3825 295.81C52.6639 296.753 51.7399 297.224 50.6105 297.224C49.4812 297.224 48.5572 296.753 47.8385 295.81C47.1199 294.849 46.7605 293.649 46.7605 292.212ZM53.1445 292.212C53.1445 291.111 52.9112 290.205 52.4445 289.496C51.9872 288.787 51.3759 288.432 50.6105 288.432C49.8452 288.432 49.2339 288.787 48.7765 289.496C48.3099 290.205 48.0765 291.111 48.0765 292.212C48.0765 293.313 48.3099 294.223 48.7765 294.942C49.2339 295.642 49.8452 295.992 50.6105 295.992C51.3759 295.992 51.9872 295.637 52.4445 294.928C52.9112 294.209 53.1445 293.304 53.1445 292.212ZM55.6883 292.212C55.6883 290.756 56.0476 289.557 56.7663 288.614C57.4849 287.671 58.4089 287.2 59.5383 287.2C60.6676 287.2 61.5916 287.676 62.3103 288.628C63.0289 289.571 63.3883 290.765 63.3883 292.212C63.3883 293.649 63.0289 294.849 62.3103 295.81C61.5916 296.753 60.6676 297.224 59.5383 297.224C58.4089 297.224 57.4849 296.753 56.7663 295.81C56.0476 294.849 55.6883 293.649 55.6883 292.212ZM62.0723 292.212C62.0723 291.111 61.8389 290.205 61.3723 289.496C60.9149 288.787 60.3036 288.432 59.5383 288.432C58.7729 288.432 58.1616 288.787 57.7043 289.496C57.2376 290.205 57.0043 291.111 57.0043 292.212C57.0043 293.313 57.2376 294.223 57.7043 294.942C58.1616 295.642 58.7729 295.992 59.5383 295.992C60.3036 295.992 60.9149 295.637 61.3723 294.928C61.8389 294.209 62.0723 293.304 62.0723 292.212Z" fill="#6B7280"/>
<line x1="96" y1="292" x2="680" y2="292" stroke="#E5E7EB"/>
<path d="M14.1713 195.762C14.1713 196.322 14.6006 196.812 15.4593 197.232V194.474C15.0673 194.539 14.7546 194.689 14.5213 194.922C14.2879 195.155 14.1713 195.435 14.1713 195.762ZM17.8113 200.48C17.8113 199.901 17.3819 199.416 16.5233 199.024V201.922C17.3819 201.726 17.8113 201.245 17.8113 200.48ZM16.5233 203.182V204.4H15.4593V203.196C14.7499 203.103 14.1293 202.827 13.5973 202.37C13.0653 201.913 12.7106 201.334 12.5333 200.634L13.6813 200.172C13.7933 200.62 14.0079 201.007 14.3253 201.334C14.6519 201.651 15.0299 201.857 15.4593 201.95V198.59C14.5259 198.217 13.8633 197.806 13.4713 197.358C13.0793 196.901 12.8833 196.369 12.8833 195.762C12.8833 195.099 13.1213 194.53 13.5973 194.054C14.0733 193.569 14.6939 193.289 15.4593 193.214V192.024H16.5233V193.256C17.1019 193.349 17.6013 193.569 18.0213 193.914C18.4506 194.259 18.7399 194.665 18.8893 195.132L17.7413 195.622C17.5733 195.043 17.1673 194.675 16.5233 194.516V197.666C17.4753 198.067 18.1426 198.483 18.5253 198.912C18.9079 199.341 19.0993 199.855 19.0993 200.452C19.0993 201.189 18.8659 201.801 18.3993 202.286C17.9419 202.762 17.3166 203.061 16.5233 203.182ZM23.8621 193.424V203H22.5741V195.02L20.7121 195.832L20.2221 194.74L23.0361 193.424H23.8621ZM25.6512 198.212C25.6512 196.756 26.0105 195.557 26.7292 194.614C27.4478 193.671 28.3718 193.2 29.5012 193.2C30.6305 193.2 31.5545 193.676 32.2732 194.628C32.9918 195.571 33.3512 196.765 33.3512 198.212C33.3512 199.649 32.9918 200.849 32.2732 201.81C31.5545 202.753 30.6305 203.224 29.5012 203.224C28.3718 203.224 27.4478 202.753 26.7292 201.81C26.0105 200.849 25.6512 199.649 25.6512 198.212ZM32.0352 198.212C32.0352 197.111 31.8018 196.205 31.3352 195.496C30.8778 194.787 30.2665 194.432 29.5012 194.432C28.7358 194.432 28.1245 194.787 27.6672 195.496C27.2005 196.205 26.9672 197.111 26.9672 198.212C26.9672 199.313 27.2005 200.223 27.6672 200.942C28.1245 201.642 28.7358 201.992 29.5012 201.992C30.2665 201.992 30.8778 201.637 31.3352 200.928C31.8018 200.209 32.0352 199.304 32.0352 198.212ZM35.1809 204.568L34.5789 204.176L35.3349 203C35.1389 202.963 34.9709 202.865 34.8309 202.706C34.7002 202.547 34.6349 202.356 34.6349 202.132C34.6349 201.861 34.7282 201.637 34.9149 201.46C35.1016 201.273 35.3256 201.18 35.5869 201.18C35.8576 201.18 36.0816 201.273 36.2589 201.46C36.4456 201.637 36.5389 201.861 36.5389 202.132C36.5389 202.384 36.4456 202.659 36.2589 202.958L35.1809 204.568ZM37.8328 198.212C37.8328 196.756 38.1921 195.557 38.9108 194.614C39.6295 193.671 40.5535 193.2 41.6828 193.2C42.8121 193.2 43.7361 193.676 44.4548 194.628C45.1735 195.571 45.5328 196.765 45.5328 198.212C45.5328 199.649 45.1735 200.849 44.4548 201.81C43.7361 202.753 42.8121 203.224 41.6828 203.224C40.5535 203.224 39.6295 202.753 38.9108 201.81C38.1921 200.849 37.8328 199.649 37.8328 198.212ZM44.2168 198.212C44.2168 197.111 43.9835 196.205 43.5168 195.496C43.0595 194.787 42.4481 194.432 41.6828 194.432C40.9175 194.432 40.3061 194.787 39.8488 195.496C39.3821 196.205 39.1488 197.111 39.1488 198.212C39.1488 199.313 39.3821 200.223 39.8488 200.942C40.3061 201.642 40.9175 201.992 41.6828 201.992C42.4481 201.992 43.0595 201.637 43.5168 200.928C43.9835 200.209 44.2168 199.304 44.2168 198.212ZM46.7605 198.212C46.7605 196.756 47.1199 195.557 47.8385 194.614C48.5572 193.671 49.4812 193.2 50.6105 193.2C51.7399 193.2 52.6639 193.676 53.3825 194.628C54.1012 195.571 54.4605 196.765 54.4605 198.212C54.4605 199.649 54.1012 200.849 53.3825 201.81C52.6639 202.753 51.7399 203.224 50.6105 203.224C49.4812 203.224 48.5572 202.753 47.8385 201.81C47.1199 200.849 46.7605 199.649 46.7605 198.212ZM53.1445 198.212C53.1445 197.111 52.9112 196.205 52.4445 195.496C51.9872 194.787 51.3759 194.432 50.6105 194.432C49.8452 194.432 49.2339 194.787 48.7765 195.496C48.3099 196.205 48.0765 197.111 48.0765 198.212C48.0765 199.313 48.3099 200.223 48.7765 200.942C49.2339 201.642 49.8452 201.992 50.6105 201.992C51.3759 201.992 51.9872 201.637 52.4445 200.928C52.9112 200.209 53.1445 199.304 53.1445 198.212ZM55.6883 198.212C55.6883 196.756 56.0476 195.557 56.7663 194.614C57.4849 193.671 58.4089 193.2 59.5383 193.2C60.6676 193.2 61.5916 193.676 62.3103 194.628C63.0289 195.571 63.3883 196.765 63.3883 198.212C63.3883 199.649 63.0289 200.849 62.3103 201.81C61.5916 202.753 60.6676 203.224 59.5383 203.224C58.4089 203.224 57.4849 202.753 56.7663 201.81C56.0476 200.849 55.6883 199.649 55.6883 198.212ZM62.0723 198.212C62.0723 197.111 61.8389 196.205 61.3723 195.496C60.9149 194.787 60.3036 194.432 59.5383 194.432C58.7729 194.432 58.1616 194.787 57.7043 195.496C57.2376 196.205 57.0043 197.111 57.0043 198.212C57.0043 199.313 57.2376 200.223 57.7043 200.942C58.1616 201.642 58.7729 201.992 59.5383 201.992C60.3036 201.992 60.9149 201.637 61.3723 200.928C61.8389 200.209 62.0723 199.304 62.0723 198.212Z" fill="#6B7280"/>
<line x1="96" y1="198" x2="680" y2="198" stroke="#E5E7EB"/>
<path d="M15.1967 101.762C15.1967 102.322 15.626 102.812 16.4847 103.232V100.474C16.0927 100.539 15.78 100.689 15.5467 100.922C15.3133 101.155 15.1967 101.435 15.1967 101.762ZM18.8367 106.48C18.8367 105.901 18.4073 105.416 17.5487 105.024V107.922C18.4073 107.726 18.8367 107.245 18.8367 106.48ZM17.5487 109.182V110.4H16.4847V109.196C15.7753 109.103 15.1547 108.827 14.6227 108.37C14.0907 107.913 13.736 107.334 13.5587 106.634L14.7067 106.172C14.8187 106.62 15.0333 107.007 15.3507 107.334C15.6773 107.651 16.0553 107.857 16.4847 107.95V104.59C15.5513 104.217 14.8887 103.806 14.4967 103.358C14.1047 102.901 13.9087 102.369 13.9087 101.762C13.9087 101.099 14.1467 100.53 14.6227 100.054C15.0987 99.5687 15.7193 99.2887 16.4847 99.214V98.024H17.5487V99.256C18.1273 99.3493 18.6267 99.5687 19.0467 99.914C19.476 100.259 19.7653 100.665 19.9147 101.132L18.7667 101.622C18.5987 101.043 18.1927 100.675 17.5487 100.516V103.666C18.5007 104.067 19.168 104.483 19.5507 104.912C19.9333 105.341 20.1247 105.855 20.1247 106.452C20.1247 107.189 19.8913 107.801 19.4247 108.286C18.9673 108.762 18.342 109.061 17.5487 109.182ZM24.8875 99.424V109H23.5995V101.02L21.7375 101.832L21.2475 100.74L24.0615 99.424H24.8875ZM33.2953 106.004C33.2953 106.919 32.9779 107.684 32.3433 108.3C31.7086 108.916 30.9246 109.224 29.9913 109.224C29.2446 109.224 28.5679 108.991 27.9613 108.524C27.3546 108.057 26.9533 107.427 26.7573 106.634L27.9053 106.172C28.0453 106.732 28.2973 107.175 28.6613 107.502C29.0346 107.829 29.4686 107.992 29.9633 107.992C30.5606 107.992 31.0459 107.81 31.4193 107.446C31.8019 107.073 31.9933 106.597 31.9933 106.018C31.9933 105.43 31.8019 104.949 31.4193 104.576C31.0459 104.203 30.5653 104.016 29.9773 104.016C29.2959 104.016 28.7593 104.291 28.3673 104.842L27.0653 104.282L27.6813 99.424H32.7073V100.656H28.7593L28.4093 103.4L28.4653 103.414C28.9413 103.031 29.5199 102.84 30.2013 102.84C31.0599 102.84 31.7879 103.143 32.3853 103.75C32.9919 104.357 33.2953 105.108 33.2953 106.004ZM35.1809 110.568L34.5789 110.176L35.3349 109C35.1389 108.963 34.9709 108.865 34.8309 108.706C34.7002 108.547 34.6349 108.356 34.6349 108.132C34.6349 107.861 34.7282 107.637 34.9149 107.46C35.1016 107.273 35.3256 107.18 35.5869 107.18C35.8576 107.18 36.0816 107.273 36.2589 107.46C36.4456 107.637 36.5389 107.861 36.5389 108.132C36.5389 108.384 36.4456 108.659 36.2589 108.958L35.1809 110.568ZM37.8328 104.212C37.8328 102.756 38.1921 101.557 38.9108 100.614C39.6295 99.6713 40.5535 99.2 41.6828 99.2C42.8121 99.2 43.7361 99.676 44.4548 100.628C45.1735 101.571 45.5328 102.765 45.5328 104.212C45.5328 105.649 45.1735 106.849 44.4548 107.81C43.7361 108.753 42.8121 109.224 41.6828 109.224C40.5535 109.224 39.6295 108.753 38.9108 107.81C38.1921 106.849 37.8328 105.649 37.8328 104.212ZM44.2168 104.212C44.2168 103.111 43.9835 102.205 43.5168 101.496C43.0595 100.787 42.4481 100.432 41.6828 100.432C40.9175 100.432 40.3061 100.787 39.8488 101.496C39.3821 102.205 39.1488 103.111 39.1488 104.212C39.1488 105.313 39.3821 106.223 39.8488 106.942C40.3061 107.642 40.9175 107.992 41.6828 107.992C42.4481 107.992 43.0595 107.637 43.5168 106.928C43.9835 106.209 44.2168 105.304 44.2168 104.212ZM46.7605 104.212C46.7605 102.756 47.1199 101.557 47.8385 100.614C48.5572 99.6713 49.4812 99.2 50.6105 99.2C51.7399 99.2 52.6639 99.676 53.3825 100.628C54.1012 101.571 54.4605 102.765 54.4605 104.212C54.4605 105.649 54.1012 106.849 53.3825 107.81C52.6639 108.753 51.7399 109.224 50.6105 109.224C49.4812 109.224 48.5572 108.753 47.8385 107.81C47.1199 106.849 46.7605 105.649 46.7605 104.212ZM53.1445 104.212C53.1445 103.111 52.9112 102.205 52.4445 101.496C51.9872 100.787 51.3759 100.432 50.6105 100.432C49.8452 100.432 49.2339 100.787 48.7765 101.496C48.3099 102.205 48.0765 103.111 48.0765 104.212C48.0765 105.313 48.3099 106.223 48.7765 106.942C49.2339 107.642 49.8452 107.992 50.6105 107.992C51.3759 107.992 51.9872 107.637 52.4445 106.928C52.9112 106.209 53.1445 105.304 53.1445 104.212ZM55.6883 104.212C55.6883 102.756 56.0476 101.557 56.7663 100.614C57.4849 99.6713 58.4089 99.2 59.5383 99.2C60.6676 99.2 61.5916 99.676 62.3103 100.628C63.0289 101.571 63.3883 102.765 63.3883 104.212C63.3883 105.649 63.0289 106.849 62.3103 107.81C61.5916 108.753 60.6676 109.224 59.5383 109.224C58.4089 109.224 57.4849 108.753 56.7663 107.81C56.0476 106.849 55.6883 105.649 55.6883 104.212ZM62.0723 104.212C62.0723 103.111 61.8389 102.205 61.3723 101.496C60.9149 100.787 60.3036 100.432 59.5383 100.432C58.7729 100.432 58.1616 100.787 57.7043 101.496C57.2376 102.205 57.0043 103.111 57.0043 104.212C57.0043 105.313 57.2376 106.223 57.7043 106.942C58.1616 107.642 58.7729 107.992 59.5383 107.992C60.3036 107.992 60.9149 107.637 61.3723 106.928C61.8389 106.209 62.0723 105.304 62.0723 104.212Z" fill="#6B7280"/>
<line x1="96" y1="104" x2="680" y2="104" stroke="#E5E7EB"/>
<path d="M12.2709 7.762C12.2709 8.322 12.7002 8.812 13.5589 9.232V6.474C13.1669 6.53933 12.8542 6.68867 12.6209 6.922C12.3875 7.15533 12.2709 7.43533 12.2709 7.762ZM15.9109 12.48C15.9109 11.9013 15.4815 11.416 14.6229 11.024V13.922C15.4815 13.726 15.9109 13.2453 15.9109 12.48ZM14.6229 15.182V16.4H13.5589V15.196C12.8495 15.1027 12.2289 14.8273 11.6969 14.37C11.1649 13.9127 10.8102 13.334 10.6329 12.634L11.7809 12.172C11.8929 12.62 12.1075 13.0073 12.4249 13.334C12.7515 13.6513 13.1295 13.8567 13.5589 13.95V10.59C12.6255 10.2167 11.9629 9.806 11.5709 9.358C11.1789 8.90067 10.9829 8.36867 10.9829 7.762C10.9829 7.09933 11.2209 6.53 11.6969 6.054C12.1729 5.56867 12.7935 5.28867 13.5589 5.214V4.024H14.6229V5.256C15.2015 5.34933 15.7009 5.56867 16.1209 5.914C16.5502 6.25933 16.8395 6.66533 16.9889 7.132L15.8409 7.622C15.6729 7.04333 15.2669 6.67467 14.6229 6.516V9.666C15.5749 10.0673 16.2422 10.4827 16.6249 10.912C17.0075 11.3413 17.1989 11.8547 17.1989 12.452C17.1989 13.1893 16.9655 13.8007 16.4989 14.286C16.0415 14.762 15.4162 15.0607 14.6229 15.182ZM24.4257 13.768V15H18.3217V13.712L20.7997 11.206C21.6304 10.3567 22.2044 9.722 22.5217 9.302C22.8391 8.87267 22.9977 8.42467 22.9977 7.958C22.9977 7.538 22.8344 7.17867 22.5077 6.88C22.1811 6.58133 21.7611 6.432 21.2477 6.432C20.8091 6.432 20.4311 6.56267 20.1137 6.824C19.7964 7.08533 19.5911 7.40267 19.4977 7.776L18.3217 7.3C18.5084 6.712 18.8677 6.21733 19.3997 5.816C19.9317 5.40533 20.5571 5.2 21.2757 5.2C22.1437 5.2 22.8671 5.466 23.4457 5.998C24.0244 6.53 24.3137 7.18333 24.3137 7.958C24.3137 8.882 23.8051 9.88067 22.7877 10.954L19.9877 13.768H24.4257ZM25.6512 10.212C25.6512 8.756 26.0105 7.55667 26.7292 6.614C27.4478 5.67133 28.3718 5.2 29.5012 5.2C30.6305 5.2 31.5545 5.676 32.2732 6.628C32.9918 7.57067 33.3512 8.76533 33.3512 10.212C33.3512 11.6493 32.9918 12.8487 32.2732 13.81C31.5545 14.7527 30.6305 15.224 29.5012 15.224C28.3718 15.224 27.4478 14.7527 26.7292 13.81C26.0105 12.8487 25.6512 11.6493 25.6512 10.212ZM32.0352 10.212C32.0352 9.11067 31.8018 8.20533 31.3352 7.496C30.8778 6.78667 30.2665 6.432 29.5012 6.432C28.7358 6.432 28.1245 6.78667 27.6672 7.496C27.2005 8.20533 26.9672 9.11067 26.9672 10.212C26.9672 11.3133 27.2005 12.2233 27.6672 12.942C28.1245 13.642 28.7358 13.992 29.5012 13.992C30.2665 13.992 30.8778 13.6373 31.3352 12.928C31.8018 12.2093 32.0352 11.304 32.0352 10.212ZM35.1809 16.568L34.5789 16.176L35.3349 15C35.1389 14.9627 34.9709 14.8647 34.8309 14.706C34.7002 14.5473 34.6349 14.356 34.6349 14.132C34.6349 13.8613 34.7282 13.6373 34.9149 13.46C35.1016 13.2733 35.3256 13.18 35.5869 13.18C35.8576 13.18 36.0816 13.2733 36.2589 13.46C36.4456 13.6373 36.5389 13.8613 36.5389 14.132C36.5389 14.384 36.4456 14.6593 36.2589 14.958L35.1809 16.568ZM37.8328 10.212C37.8328 8.756 38.1921 7.55667 38.9108 6.614C39.6295 5.67133 40.5535 5.2 41.6828 5.2C42.8121 5.2 43.7361 5.676 44.4548 6.628C45.1735 7.57067 45.5328 8.76533 45.5328 10.212C45.5328 11.6493 45.1735 12.8487 44.4548 13.81C43.7361 14.7527 42.8121 15.224 41.6828 15.224C40.5535 15.224 39.6295 14.7527 38.9108 13.81C38.1921 12.8487 37.8328 11.6493 37.8328 10.212ZM44.2168 10.212C44.2168 9.11067 43.9835 8.20533 43.5168 7.496C43.0595 6.78667 42.4481 6.432 41.6828 6.432C40.9175 6.432 40.3061 6.78667 39.8488 7.496C39.3821 8.20533 39.1488 9.11067 39.1488 10.212C39.1488 11.3133 39.3821 12.2233 39.8488 12.942C40.3061 13.642 40.9175 13.992 41.6828 13.992C42.4481 13.992 43.0595 13.6373 43.5168 12.928C43.9835 12.2093 44.2168 11.304 44.2168 10.212ZM46.7605 10.212C46.7605 8.756 47.1199 7.55667 47.8385 6.614C48.5572 5.67133 49.4812 5.2 50.6105 5.2C51.7399 5.2 52.6639 5.676 53.3825 6.628C54.1012 7.57067 54.4605 8.76533 54.4605 10.212C54.4605 11.6493 54.1012 12.8487 53.3825 13.81C52.6639 14.7527 51.7399 15.224 50.6105 15.224C49.4812 15.224 48.5572 14.7527 47.8385 13.81C47.1199 12.8487 46.7605 11.6493 46.7605 10.212ZM53.1445 10.212C53.1445 9.11067 52.9112 8.20533 52.4445 7.496C51.9872 6.78667 51.3759 6.432 50.6105 6.432C49.8452 6.432 49.2339 6.78667 48.7765 7.496C48.3099 8.20533 48.0765 9.11067 48.0765 10.212C48.0765 11.3133 48.3099 12.2233 48.7765 12.942C49.2339 13.642 49.8452 13.992 50.6105 13.992C51.3759 13.992 51.9872 13.6373 52.4445 12.928C52.9112 12.2093 53.1445 11.304 53.1445 10.212ZM55.6883 10.212C55.6883 8.756 56.0476 7.55667 56.7663 6.614C57.4849 5.67133 58.4089 5.2 59.5383 5.2C60.6676 5.2 61.5916 5.676 62.3103 6.628C63.0289 7.57067 63.3883 8.76533 63.3883 10.212C63.3883 11.6493 63.0289 12.8487 62.3103 13.81C61.5916 14.7527 60.6676 15.224 59.5383 15.224C58.4089 15.224 57.4849 14.7527 56.7663 13.81C56.0476 12.8487 55.6883 11.6493 55.6883 10.212ZM62.0723 10.212C62.0723 9.11067 61.8389 8.20533 61.3723 7.496C60.9149 6.78667 60.3036 6.432 59.5383 6.432C58.7729 6.432 58.1616 6.78667 57.7043 7.496C57.2376 8.20533 57.0043 9.11067 57.0043 10.212C57.0043 11.3133 57.2376 12.2233 57.7043 12.942C58.1616 13.642 58.7729 13.992 59.5383 13.992C60.3036 13.992 60.9149 13.6373 61.3723 12.928C61.8389 12.2093 62.0723 11.304 62.0723 10.212Z" fill="#6B7280"/>
<line x1="96" y1="10" x2="680" y2="10" stroke="#E5E7EB"/>
<circle cx="388" cy="105" r="14" fill="white"/>
<circle cx="388" cy="105" r="10" fill="#2180FF"/>
<g filter="url(#filter0_d_44_1517)">
<path d="M402 70C402 61.1634 409.163 54 418 54H493C501.837 54 509 61.1634 509 70V83C509 91.8366 501.837 99 493 99H402V70Z" fill="white"/>
</g>
<path d="M440.256 74.728C440.256 75.368 440.747 75.928 441.728 76.408V73.256C441.28 73.3307 440.923 73.5013 440.656 73.768C440.389 74.0347 440.256 74.3547 440.256 74.728ZM444.416 80.12C444.416 79.4587 443.925 78.904 442.944 78.456V81.768C443.925 81.544 444.416 80.9947 444.416 80.12ZM442.944 83.208V84.6H441.728V83.224C440.917 83.1173 440.208 82.8027 439.6 82.28C438.992 81.7573 438.587 81.096 438.384 80.296L439.696 79.768C439.824 80.28 440.069 80.7227 440.432 81.096C440.805 81.4587 441.237 81.6933 441.728 81.8V77.96C440.661 77.5333 439.904 77.064 439.456 76.552C439.008 76.0293 438.784 75.4213 438.784 74.728C438.784 73.9707 439.056 73.32 439.6 72.776C440.144 72.2213 440.853 71.9013 441.728 71.816V70.456H442.944V71.864C443.605 71.9707 444.176 72.2213 444.656 72.616C445.147 73.0107 445.477 73.4747 445.648 74.008L444.336 74.568C444.144 73.9067 443.68 73.4853 442.944 73.304V76.904C444.032 77.3627 444.795 77.8373 445.232 78.328C445.669 78.8187 445.888 79.4053 445.888 80.088C445.888 80.9307 445.621 81.6293 445.088 82.184C444.565 82.728 443.851 83.0693 442.944 83.208ZM451.331 72.056V83H449.859V73.88L447.731 74.808L447.171 73.56L450.387 72.056H451.331ZM459.984 80.696V83H458.512V80.696H453.312V79.576L458.384 72.056H459.984V79.32H461.392V80.696H459.984ZM454.976 79.32H458.512V74.216H458.448L454.976 79.32ZM463.486 84.792L462.798 84.344L463.662 83C463.438 82.9573 463.246 82.8453 463.086 82.664C462.936 82.4827 462.862 82.264 462.862 82.008C462.862 81.6987 462.968 81.4427 463.182 81.24C463.395 81.0267 463.651 80.92 463.95 80.92C464.259 80.92 464.515 81.0267 464.718 81.24C464.931 81.4427 465.038 81.6987 465.038 82.008C465.038 82.296 464.931 82.6107 464.718 82.952L463.486 84.792ZM466.517 77.528C466.517 75.864 466.927 74.4933 467.749 73.416C468.57 72.3387 469.626 71.8 470.917 71.8C472.207 71.8 473.263 72.344 474.085 73.432C474.906 74.5093 475.317 75.8747 475.317 77.528C475.317 79.1707 474.906 80.5413 474.085 81.64C473.263 82.7173 472.207 83.256 470.917 83.256C469.626 83.256 468.57 82.7173 467.749 81.64C466.927 80.5413 466.517 79.1707 466.517 77.528ZM473.812 77.528C473.812 76.2693 473.546 75.2347 473.013 74.424C472.49 73.6133 471.791 73.208 470.917 73.208C470.042 73.208 469.343 73.6133 468.821 74.424C468.287 75.2347 468.021 76.2693 468.021 77.528C468.021 78.7867 468.287 79.8267 468.821 80.648C469.343 81.448 470.042 81.848 470.917 81.848C471.791 81.848 472.49 81.4427 473.013 80.632C473.546 79.8107 473.812 78.776 473.812 77.528ZM476.72 77.528C476.72 75.864 477.13 74.4933 477.952 73.416C478.773 72.3387 479.829 71.8 481.12 71.8C482.41 71.8 483.466 72.344 484.288 73.432C485.109 74.5093 485.52 75.8747 485.52 77.528C485.52 79.1707 485.109 80.5413 484.288 81.64C483.466 82.7173 482.41 83.256 481.12 83.256C479.829 83.256 478.773 82.7173 477.952 81.64C477.13 80.5413 476.72 79.1707 476.72 77.528ZM484.016 77.528C484.016 76.2693 483.749 75.2347 483.216 74.424C482.693 73.6133 481.994 73.208 481.12 73.208C480.245 73.208 479.546 73.6133 479.024 74.424C478.49 75.2347 478.224 76.2693 478.224 77.528C478.224 78.7867 478.49 79.8267 479.024 80.648C479.546 81.448 480.245 81.848 481.12 81.848C481.994 81.848 482.693 81.4427 483.216 80.632C483.749 79.8107 484.016 78.776 484.016 77.528ZM486.923 77.528C486.923 75.864 487.333 74.4933 488.155 73.416C488.976 72.3387 490.032 71.8 491.323 71.8C492.613 71.8 493.669 72.344 494.491 73.432C495.312 74.5093 495.723 75.8747 495.723 77.528C495.723 79.1707 495.312 80.5413 494.491 81.64C493.669 82.7173 492.613 83.256 491.323 83.256C490.032 83.256 488.976 82.7173 488.155 81.64C487.333 80.5413 486.923 79.1707 486.923 77.528ZM494.219 77.528C494.219 76.2693 493.952 75.2347 493.419 74.424C492.896 73.6133 492.197 73.208 491.323 73.208C490.448 73.208 489.749 73.6133 489.227 74.424C488.693 75.2347 488.427 76.2693 488.427 77.528C488.427 78.7867 488.693 79.8267 489.227 80.648C489.749 81.448 490.448 81.848 491.323 81.848C492.197 81.848 492.896 81.4427 493.419 80.632C493.952 79.8107 494.219 78.776 494.219 77.528Z" fill="black"/>
<rect x="414" y="67" width="20" height="20" rx="8" fill="#2180FF"/>
<path d="M83.458 426.224C82.702 426.224 82.0487 426.019 81.498 425.608C80.9473 425.197 80.56 424.628 80.336 423.9L81.554 423.396C81.8713 424.46 82.506 424.992 83.458 424.992C83.9807 424.992 84.4007 424.81 84.718 424.446C85.0447 424.073 85.208 423.592 85.208 423.004V415.976H86.496V422.892C86.496 423.928 86.2207 424.745 85.67 425.342C85.1287 425.93 84.3913 426.224 83.458 426.224ZM89.0638 423.9C89.0638 424.236 89.2038 424.516 89.4838 424.74C89.7731 424.964 90.1091 425.076 90.4918 425.076C91.0331 425.076 91.5138 424.875 91.9338 424.474C92.3631 424.073 92.5778 423.601 92.5778 423.06C92.1765 422.743 91.6165 422.584 90.8978 422.584C90.3751 422.584 89.9365 422.71 89.5818 422.962C89.2365 423.214 89.0638 423.527 89.0638 423.9ZM90.7298 418.916C91.6818 418.916 92.4331 419.173 92.9838 419.686C93.5345 420.19 93.8098 420.885 93.8098 421.772V426H92.5778V425.048H92.5218C91.9898 425.832 91.2805 426.224 90.3938 426.224C89.6378 426.224 89.0031 426 88.4898 425.552C87.9858 425.104 87.7338 424.544 87.7338 423.872C87.7338 423.163 87.9998 422.598 88.5318 422.178C89.0731 421.758 89.7918 421.548 90.6878 421.548C91.4531 421.548 92.0831 421.688 92.5778 421.968V421.674C92.5778 421.226 92.4005 420.848 92.0458 420.54C91.6911 420.223 91.2758 420.064 90.7998 420.064C90.0811 420.064 89.5118 420.367 89.0918 420.974L87.9578 420.26C88.5831 419.364 89.5071 418.916 90.7298 418.916ZM95.2625 419.14H96.4945V420.092H96.5505C96.7465 419.756 97.0452 419.476 97.4465 419.252C97.8572 419.028 98.2818 418.916 98.7205 418.916C99.5605 418.916 100.205 419.159 100.653 419.644C101.11 420.12 101.339 420.801 101.339 421.688V426H100.051V421.772C100.023 420.652 99.4578 420.092 98.3565 420.092C97.8432 420.092 97.4138 420.302 97.0685 420.722C96.7232 421.133 96.5505 421.627 96.5505 422.206V426H95.2625V419.14ZM111.807 424.768V426H105.703V424.712L108.181 422.206C109.011 421.357 109.585 420.722 109.903 420.302C110.22 419.873 110.379 419.425 110.379 418.958C110.379 418.538 110.215 418.179 109.889 417.88C109.562 417.581 109.142 417.432 108.629 417.432C108.19 417.432 107.812 417.563 107.495 417.824C107.177 418.085 106.972 418.403 106.879 418.776L105.703 418.3C105.889 417.712 106.249 417.217 106.781 416.816C107.313 416.405 107.938 416.2 108.657 416.2C109.525 416.2 110.248 416.466 110.827 416.998C111.405 417.53 111.695 418.183 111.695 418.958C111.695 419.882 111.186 420.881 110.169 421.954L107.369 424.768H111.807ZM116.479 416.424V426H115.191V418.02L113.329 418.832L112.839 417.74L115.653 416.424H116.479Z" fill="#6B7280"/>
<path d="M171.291 426.224C170.535 426.224 169.882 426.019 169.331 425.608C168.781 425.197 168.393 424.628 168.169 423.9L169.387 423.396C169.705 424.46 170.339 424.992 171.291 424.992C171.814 424.992 172.234 424.81 172.551 424.446C172.878 424.073 173.041 423.592 173.041 423.004V415.976H174.329V422.892C174.329 423.928 174.054 424.745 173.503 425.342C172.962 425.93 172.225 426.224 171.291 426.224ZM176.897 423.9C176.897 424.236 177.037 424.516 177.317 424.74C177.606 424.964 177.942 425.076 178.325 425.076C178.866 425.076 179.347 424.875 179.767 424.474C180.196 424.073 180.411 423.601 180.411 423.06C180.01 422.743 179.45 422.584 178.731 422.584C178.208 422.584 177.77 422.71 177.415 422.962C177.07 423.214 176.897 423.527 176.897 423.9ZM178.563 418.916C179.515 418.916 180.266 419.173 180.817 419.686C181.368 420.19 181.643 420.885 181.643 421.772V426H180.411V425.048H180.355C179.823 425.832 179.114 426.224 178.227 426.224C177.471 426.224 176.836 426 176.323 425.552C175.819 425.104 175.567 424.544 175.567 423.872C175.567 423.163 175.833 422.598 176.365 422.178C176.906 421.758 177.625 421.548 178.521 421.548C179.286 421.548 179.916 421.688 180.411 421.968V421.674C180.411 421.226 180.234 420.848 179.879 420.54C179.524 420.223 179.109 420.064 178.633 420.064C177.914 420.064 177.345 420.367 176.925 420.974L175.791 420.26C176.416 419.364 177.34 418.916 178.563 418.916ZM183.096 419.14H184.328V420.092H184.384C184.58 419.756 184.879 419.476 185.28 419.252C185.691 419.028 186.115 418.916 186.554 418.916C187.394 418.916 188.038 419.159 188.486 419.644C188.943 420.12 189.172 420.801 189.172 421.688V426H187.884V421.772C187.856 420.652 187.291 420.092 186.19 420.092C185.677 420.092 185.247 420.302 184.902 420.722C184.557 421.133 184.384 421.627 184.384 422.206V426H183.096V419.14ZM199.64 424.768V426H193.536V424.712L196.014 422.206C196.845 421.357 197.419 420.722 197.736 420.302C198.053 419.873 198.212 419.425 198.212 418.958C198.212 418.538 198.049 418.179 197.722 417.88C197.395 417.581 196.975 417.432 196.462 417.432C196.023 417.432 195.645 417.563 195.328 417.824C195.011 418.085 194.805 418.403 194.712 418.776L193.536 418.3C193.723 417.712 194.082 417.217 194.614 416.816C195.146 416.405 195.771 416.2 196.49 416.2C197.358 416.2 198.081 416.466 198.66 416.998C199.239 417.53 199.528 418.183 199.528 418.958C199.528 419.882 199.019 420.881 198.002 421.954L195.202 424.768H199.64ZM206.913 424.768V426H200.809V424.712L203.287 422.206C204.118 421.357 204.692 420.722 205.009 420.302C205.327 419.873 205.485 419.425 205.485 418.958C205.485 418.538 205.322 418.179 204.995 417.88C204.669 417.581 204.249 417.432 203.735 417.432C203.297 417.432 202.919 417.563 202.601 417.824C202.284 418.085 202.079 418.403 201.985 418.776L200.809 418.3C200.996 417.712 201.355 417.217 201.887 416.816C202.419 416.405 203.045 416.2 203.763 416.2C204.631 416.2 205.355 416.466 205.933 416.998C206.512 417.53 206.801 418.183 206.801 418.958C206.801 419.882 206.293 420.881 205.275 421.954L202.475 424.768H206.913Z" fill="#6B7280"/>
<path d="M271.125 426.224C270.369 426.224 269.715 426.019 269.165 425.608C268.614 425.197 268.227 424.628 268.003 423.9L269.221 423.396C269.538 424.46 270.173 424.992 271.125 424.992C271.647 424.992 272.067 424.81 272.385 424.446C272.711 424.073 272.875 423.592 272.875 423.004V415.976H274.163V422.892C274.163 423.928 273.887 424.745 273.337 425.342C272.795 425.93 272.058 426.224 271.125 426.224ZM276.73 423.9C276.73 424.236 276.87 424.516 277.15 424.74C277.44 424.964 277.776 425.076 278.158 425.076C278.7 425.076 279.18 424.875 279.6 424.474C280.03 424.073 280.244 423.601 280.244 423.06C279.843 422.743 279.283 422.584 278.564 422.584C278.042 422.584 277.603 422.71 277.248 422.962C276.903 423.214 276.73 423.527 276.73 423.9ZM278.396 418.916C279.348 418.916 280.1 419.173 280.65 419.686C281.201 420.19 281.476 420.885 281.476 421.772V426H280.244V425.048H280.188C279.656 425.832 278.947 426.224 278.06 426.224C277.304 426.224 276.67 426 276.156 425.552C275.652 425.104 275.4 424.544 275.4 423.872C275.4 423.163 275.666 422.598 276.198 422.178C276.74 421.758 277.458 421.548 278.354 421.548C279.12 421.548 279.75 421.688 280.244 421.968V421.674C280.244 421.226 280.067 420.848 279.712 420.54C279.358 420.223 278.942 420.064 278.466 420.064C277.748 420.064 277.178 420.367 276.758 420.974L275.624 420.26C276.25 419.364 277.174 418.916 278.396 418.916ZM282.929 419.14H284.161V420.092H284.217C284.413 419.756 284.712 419.476 285.113 419.252C285.524 419.028 285.949 418.916 286.387 418.916C287.227 418.916 287.871 419.159 288.319 419.644C288.777 420.12 289.005 420.801 289.005 421.688V426H287.717V421.772C287.689 420.652 287.125 420.092 286.023 420.092C285.51 420.092 285.081 420.302 284.735 420.722C284.39 421.133 284.217 421.627 284.217 422.206V426H282.929V419.14ZM299.473 424.768V426H293.369V424.712L295.847 422.206C296.678 421.357 297.252 420.722 297.569 420.302C297.887 419.873 298.045 419.425 298.045 418.958C298.045 418.538 297.882 418.179 297.555 417.88C297.229 417.581 296.809 417.432 296.295 417.432C295.857 417.432 295.479 417.563 295.161 417.824C294.844 418.085 294.639 418.403 294.545 418.776L293.369 418.3C293.556 417.712 293.915 417.217 294.447 416.816C294.979 416.405 295.605 416.2 296.323 416.2C297.191 416.2 297.915 416.466 298.493 416.998C299.072 417.53 299.361 418.183 299.361 418.958C299.361 419.882 298.853 420.881 297.835 421.954L295.035 424.768H299.473ZM306.957 423.284C306.957 424.124 306.644 424.824 306.019 425.384C305.403 425.944 304.637 426.224 303.723 426.224C303.004 426.224 302.355 426.009 301.777 425.58C301.189 425.132 300.792 424.549 300.587 423.83L301.763 423.34C301.912 423.872 302.155 424.283 302.491 424.572C302.836 424.852 303.247 424.992 303.723 424.992C304.245 424.992 304.698 424.829 305.081 424.502C305.454 424.166 305.641 423.76 305.641 423.284C305.641 422.808 305.445 422.407 305.053 422.08C304.67 421.753 304.208 421.59 303.667 421.59H302.841V420.386H303.569C304.082 420.386 304.502 420.246 304.829 419.966C305.155 419.677 305.319 419.303 305.319 418.846C305.319 418.426 305.165 418.085 304.857 417.824C304.549 417.563 304.143 417.432 303.639 417.432C302.827 417.432 302.271 417.847 301.973 418.678L300.783 418.174C300.997 417.586 301.357 417.11 301.861 416.746C302.365 416.382 302.957 416.2 303.639 416.2C304.488 416.2 305.202 416.452 305.781 416.956C306.35 417.441 306.635 418.071 306.635 418.846C306.635 419.77 306.205 420.456 305.347 420.904V420.96C305.851 421.175 306.243 421.487 306.523 421.898C306.812 422.309 306.957 422.771 306.957 423.284Z" fill="#6B7280"/>
<path d="M360.958 426.224C360.202 426.224 359.549 426.019 358.998 425.608C358.447 425.197 358.06 424.628 357.836 423.9L359.054 423.396C359.371 424.46 360.006 424.992 360.958 424.992C361.481 424.992 361.901 424.81 362.218 424.446C362.545 424.073 362.708 423.592 362.708 423.004V415.976H363.996V422.892C363.996 423.928 363.721 424.745 363.17 425.342C362.629 425.93 361.891 426.224 360.958 426.224ZM366.564 423.9C366.564 424.236 366.704 424.516 366.984 424.74C367.273 424.964 367.609 425.076 367.992 425.076C368.533 425.076 369.014 424.875 369.434 424.474C369.863 424.073 370.078 423.601 370.078 423.06C369.676 422.743 369.116 422.584 368.398 422.584C367.875 422.584 367.436 422.71 367.082 422.962C366.736 423.214 366.564 423.527 366.564 423.9ZM368.23 418.916C369.182 418.916 369.933 419.173 370.484 419.686C371.034 420.19 371.31 420.885 371.31 421.772V426H370.078V425.048H370.022C369.49 425.832 368.78 426.224 367.894 426.224C367.138 426.224 366.503 426 365.99 425.552C365.486 425.104 365.234 424.544 365.234 423.872C365.234 423.163 365.5 422.598 366.032 422.178C366.573 421.758 367.292 421.548 368.188 421.548C368.953 421.548 369.583 421.688 370.078 421.968V421.674C370.078 421.226 369.9 420.848 369.546 420.54C369.191 420.223 368.776 420.064 368.3 420.064C367.581 420.064 367.012 420.367 366.592 420.974L365.458 420.26C366.083 419.364 367.007 418.916 368.23 418.916ZM372.763 419.14H373.995V420.092H374.051C374.247 419.756 374.545 419.476 374.947 419.252C375.357 419.028 375.782 418.916 376.221 418.916C377.061 418.916 377.705 419.159 378.153 419.644C378.61 420.12 378.839 420.801 378.839 421.688V426H377.551V421.772C377.523 420.652 376.958 420.092 375.857 420.092C375.343 420.092 374.914 420.302 374.569 420.722C374.223 421.133 374.051 421.627 374.051 422.206V426H372.763V419.14ZM389.307 424.768V426H383.203V424.712L385.681 422.206C386.511 421.357 387.085 420.722 387.403 420.302C387.72 419.873 387.879 419.425 387.879 418.958C387.879 418.538 387.715 418.179 387.389 417.88C387.062 417.581 386.642 417.432 386.129 417.432C385.69 417.432 385.312 417.563 384.995 417.824C384.677 418.085 384.472 418.403 384.379 418.776L383.203 418.3C383.389 417.712 383.749 417.217 384.281 416.816C384.813 416.405 385.438 416.2 386.157 416.2C387.025 416.2 387.748 416.466 388.327 416.998C388.905 417.53 389.195 418.183 389.195 418.958C389.195 419.882 388.686 420.881 387.669 421.954L384.869 424.768H389.307ZM396.314 423.984V426H395.026V423.984H390.476V423.004L394.914 416.424H396.314V422.78H397.546V423.984H396.314ZM391.932 422.78H395.026V418.314H394.97L391.932 422.78Z" fill="#6B7280"/>
<path d="M451.791 426.224C451.035 426.224 450.382 426.019 449.831 425.608C449.281 425.197 448.893 424.628 448.669 423.9L449.887 423.396C450.205 424.46 450.839 424.992 451.791 424.992C452.314 424.992 452.734 424.81 453.051 424.446C453.378 424.073 453.541 423.592 453.541 423.004V415.976H454.829V422.892C454.829 423.928 454.554 424.745 454.003 425.342C453.462 425.93 452.725 426.224 451.791 426.224ZM457.397 423.9C457.397 424.236 457.537 424.516 457.817 424.74C458.106 424.964 458.442 425.076 458.825 425.076C459.366 425.076 459.847 424.875 460.267 424.474C460.696 424.073 460.911 423.601 460.911 423.06C460.51 422.743 459.95 422.584 459.231 422.584C458.708 422.584 458.27 422.71 457.915 422.962C457.57 423.214 457.397 423.527 457.397 423.9ZM459.063 418.916C460.015 418.916 460.766 419.173 461.317 419.686C461.868 420.19 462.143 420.885 462.143 421.772V426H460.911V425.048H460.855C460.323 425.832 459.614 426.224 458.727 426.224C457.971 426.224 457.336 426 456.823 425.552C456.319 425.104 456.067 424.544 456.067 423.872C456.067 423.163 456.333 422.598 456.865 422.178C457.406 421.758 458.125 421.548 459.021 421.548C459.786 421.548 460.416 421.688 460.911 421.968V421.674C460.911 421.226 460.734 420.848 460.379 420.54C460.024 420.223 459.609 420.064 459.133 420.064C458.414 420.064 457.845 420.367 457.425 420.974L456.291 420.26C456.916 419.364 457.84 418.916 459.063 418.916ZM463.596 419.14H464.828V420.092H464.884C465.08 419.756 465.378 419.476 465.78 419.252C466.19 419.028 466.615 418.916 467.054 418.916C467.894 418.916 468.538 419.159 468.986 419.644C469.443 420.12 469.672 420.801 469.672 421.688V426H468.384V421.772C468.356 420.652 467.791 420.092 466.69 420.092C466.176 420.092 465.747 420.302 465.402 420.722C465.056 421.133 464.884 421.627 464.884 422.206V426H463.596V419.14ZM480.14 424.768V426H474.036V424.712L476.514 422.206C477.345 421.357 477.919 420.722 478.236 420.302C478.553 419.873 478.712 419.425 478.712 418.958C478.712 418.538 478.549 418.179 478.222 417.88C477.895 417.581 477.475 417.432 476.962 417.432C476.523 417.432 476.145 417.563 475.828 417.824C475.511 418.085 475.305 418.403 475.212 418.776L474.036 418.3C474.223 417.712 474.582 417.217 475.114 416.816C475.646 416.405 476.271 416.2 476.99 416.2C477.858 416.2 478.581 416.466 479.16 416.998C479.739 417.53 480.028 418.183 480.028 418.958C480.028 419.882 479.519 420.881 478.502 421.954L475.702 424.768H480.14ZM487.847 423.004C487.847 423.919 487.53 424.684 486.895 425.3C486.261 425.916 485.477 426.224 484.543 426.224C483.797 426.224 483.12 425.991 482.513 425.524C481.907 425.057 481.505 424.427 481.309 423.634L482.457 423.172C482.597 423.732 482.849 424.175 483.213 424.502C483.587 424.829 484.021 424.992 484.515 424.992C485.113 424.992 485.598 424.81 485.971 424.446C486.354 424.073 486.545 423.597 486.545 423.018C486.545 422.43 486.354 421.949 485.971 421.576C485.598 421.203 485.117 421.016 484.529 421.016C483.848 421.016 483.311 421.291 482.919 421.842L481.617 421.282L482.233 416.424H487.259V417.656H483.311L482.961 420.4L483.017 420.414C483.493 420.031 484.072 419.84 484.753 419.84C485.612 419.84 486.34 420.143 486.937 420.75C487.544 421.357 487.847 422.108 487.847 423.004Z" fill="#6B7280"/>
<path d="M552.625 426.224C551.869 426.224 551.215 426.019 550.665 425.608C550.114 425.197 549.727 424.628 549.503 423.9L550.721 423.396C551.038 424.46 551.673 424.992 552.625 424.992C553.147 424.992 553.567 424.81 553.885 424.446C554.211 424.073 554.375 423.592 554.375 423.004V415.976H555.663V422.892C555.663 423.928 555.387 424.745 554.837 425.342C554.295 425.93 553.558 426.224 552.625 426.224ZM558.23 423.9C558.23 424.236 558.37 424.516 558.65 424.74C558.94 424.964 559.276 425.076 559.658 425.076C560.2 425.076 560.68 424.875 561.1 424.474C561.53 424.073 561.744 423.601 561.744 423.06C561.343 422.743 560.783 422.584 560.064 422.584C559.542 422.584 559.103 422.71 558.748 422.962C558.403 423.214 558.23 423.527 558.23 423.9ZM559.896 418.916C560.848 418.916 561.6 419.173 562.15 419.686C562.701 420.19 562.976 420.885 562.976 421.772V426H561.744V425.048H561.688C561.156 425.832 560.447 426.224 559.56 426.224C558.804 426.224 558.17 426 557.656 425.552C557.152 425.104 556.9 424.544 556.9 423.872C556.9 423.163 557.166 422.598 557.698 422.178C558.24 421.758 558.958 421.548 559.854 421.548C560.62 421.548 561.25 421.688 561.744 421.968V421.674C561.744 421.226 561.567 420.848 561.212 420.54C560.858 420.223 560.442 420.064 559.966 420.064C559.248 420.064 558.678 420.367 558.258 420.974L557.124 420.26C557.75 419.364 558.674 418.916 559.896 418.916ZM564.429 419.14H565.661V420.092H565.717C565.913 419.756 566.212 419.476 566.613 419.252C567.024 419.028 567.448 418.916 567.887 418.916C568.727 418.916 569.371 419.159 569.819 419.644C570.276 420.12 570.505 420.801 570.505 421.688V426H569.217V421.772C569.189 420.652 568.624 420.092 567.523 420.092C567.01 420.092 566.58 420.302 566.235 420.722C565.89 421.133 565.717 421.627 565.717 422.206V426H564.429V419.14ZM580.973 424.768V426H574.869V424.712L577.347 422.206C578.178 421.357 578.752 420.722 579.069 420.302C579.387 419.873 579.545 419.425 579.545 418.958C579.545 418.538 579.382 418.179 579.055 417.88C578.729 417.581 578.309 417.432 577.795 417.432C577.357 417.432 576.979 417.563 576.661 417.824C576.344 418.085 576.139 418.403 576.045 418.776L574.869 418.3C575.056 417.712 575.415 417.217 575.947 416.816C576.479 416.405 577.105 416.2 577.823 416.2C578.691 416.2 579.415 416.466 579.993 416.998C580.572 417.53 580.861 418.183 580.861 418.958C580.861 419.882 580.353 420.881 579.335 421.954L576.535 424.768H580.973ZM585.713 419.924C586.487 419.924 587.178 420.232 587.785 420.848C588.401 421.455 588.709 422.178 588.709 423.018C588.709 423.877 588.382 424.628 587.729 425.272C587.066 425.907 586.301 426.224 585.433 426.224C584.509 426.224 583.729 425.907 583.095 425.272C582.46 424.637 582.143 423.886 582.143 423.018C582.143 422.243 582.455 421.361 583.081 420.372L585.867 416.2L586.903 416.914L584.537 420.19L584.565 420.218C584.854 420.022 585.237 419.924 585.713 419.924ZM583.445 423.032C583.445 423.583 583.636 424.049 584.019 424.432C584.401 424.805 584.873 424.992 585.433 424.992C585.993 424.992 586.459 424.805 586.833 424.432C587.215 424.049 587.407 423.583 587.407 423.032C587.407 422.491 587.211 422.029 586.819 421.646C586.436 421.263 585.974 421.072 585.433 421.072C584.901 421.072 584.434 421.263 584.033 421.646C583.641 422.029 583.445 422.491 583.445 423.032Z" fill="#6B7280"/>
<path d="M643.458 426.224C642.702 426.224 642.049 426.019 641.498 425.608C640.947 425.197 640.56 424.628 640.336 423.9L641.554 423.396C641.871 424.46 642.506 424.992 643.458 424.992C643.981 424.992 644.401 424.81 644.718 424.446C645.045 424.073 645.208 423.592 645.208 423.004V415.976H646.496V422.892C646.496 423.928 646.221 424.745 645.67 425.342C645.129 425.93 644.391 426.224 643.458 426.224ZM649.064 423.9C649.064 424.236 649.204 424.516 649.484 424.74C649.773 424.964 650.109 425.076 650.492 425.076C651.033 425.076 651.514 424.875 651.934 424.474C652.363 424.073 652.578 423.601 652.578 423.06C652.176 422.743 651.616 422.584 650.898 422.584C650.375 422.584 649.936 422.71 649.582 422.962C649.236 423.214 649.064 423.527 649.064 423.9ZM650.73 418.916C651.682 418.916 652.433 419.173 652.984 419.686C653.534 420.19 653.81 420.885 653.81 421.772V426H652.578V425.048H652.522C651.99 425.832 651.28 426.224 650.394 426.224C649.638 426.224 649.003 426 648.49 425.552C647.986 425.104 647.734 424.544 647.734 423.872C647.734 423.163 648 422.598 648.532 422.178C649.073 421.758 649.792 421.548 650.688 421.548C651.453 421.548 652.083 421.688 652.578 421.968V421.674C652.578 421.226 652.4 420.848 652.046 420.54C651.691 420.223 651.276 420.064 650.8 420.064C650.081 420.064 649.512 420.367 649.092 420.974L647.958 420.26C648.583 419.364 649.507 418.916 650.73 418.916ZM655.262 419.14H656.494V420.092H656.55C656.746 419.756 657.045 419.476 657.446 419.252C657.857 419.028 658.282 418.916 658.72 418.916C659.56 418.916 660.204 419.159 660.652 419.644C661.11 420.12 661.338 420.801 661.338 421.688V426H660.05V421.772C660.022 420.652 659.458 420.092 658.356 420.092C657.843 420.092 657.414 420.302 657.068 420.722C656.723 421.133 656.55 421.627 656.55 422.206V426H655.262V419.14ZM671.807 424.768V426H665.703V424.712L668.181 422.206C669.011 421.357 669.585 420.722 669.903 420.302C670.22 419.873 670.379 419.425 670.379 418.958C670.379 418.538 670.215 418.179 669.889 417.88C669.562 417.581 669.142 417.432 668.629 417.432C668.19 417.432 667.812 417.563 667.495 417.824C667.177 418.085 666.972 418.403 666.879 418.776L665.703 418.3C665.889 417.712 666.249 417.217 666.781 416.816C667.313 416.405 667.938 416.2 668.657 416.2C669.525 416.2 670.248 416.466 670.827 416.998C671.405 417.53 671.695 418.183 671.695 418.958C671.695 419.882 671.186 420.881 670.169 421.954L667.369 424.768H671.807ZM679.178 417.74L674.53 426.224L673.382 425.636L677.82 417.656H672.976L673.004 416.424H679.178V417.74Z" fill="#6B7280"/>
<defs>
<filter id="filter0_d_44_1517" x="398" y="54" width="115" height="53" filterUnits="userSpaceOnUse" color-interpolation-filters="sRGB">
<feFlood flood-opacity="0" result="BackgroundImageFix"/>
<feColorMatrix in="SourceAlpha" type="matrix" values="0 0 0 0 0 0 0 0 0 0 0 0 0 0 0 0 0 0 127 0" result="hardAlpha"/>
<feOffset dy="4"/>
<feGaussianBlur stdDeviation="2"/>
<feComposite in2="hardAlpha" operator="out"/>
<feColorMatrix type="matrix" values="0 0 0 0 0 0 0 0 0 0 0 0 0 0 0 0 0 0 0.25 0"/>
<feBlend mode="normal" in2="BackgroundImageFix" result="effect1_dropShadow_44_1517"/>
<feBlend mode="normal" in="SourceGraphic" in2="effect1_dropShadow_44_1517" result="shape"/>
</filter>
<linearGradient id="paint0_linear_44_1517" x1="388" y1="0" x2="388" y2="382" gradientUnits="userSpaceOnUse">
<stop stop-color="#2A2EFF"/>
<stop offset="1" stop-color="white"/>
</linearGradient>
</defs>
</svg>
