<svg width="80" height="40" viewBox="0 0 80 40" fill="none" xmlns="http://www.w3.org/2000/svg">
<rect x="1" y="1" width="78" height="38" rx="19" stroke="white" stroke-width="2"/>
<path d="M49.8913 20.5723C49.9994 20.2988 50.0277 19.9979 49.9725 19.7076C49.9173 19.4173 49.7812 19.1507 49.5812 18.9415L43.8666 12.9568C43.7348 12.8139 43.5772 12.6999 43.4029 12.6215C43.2286 12.5431 43.0411 12.5018 42.8514 12.5001C42.6617 12.4983 42.4736 12.5362 42.298 12.6114C42.1224 12.6866 41.9629 12.7977 41.8288 12.9382C41.6946 13.0787 41.5885 13.2457 41.5167 13.4296C41.4449 13.6135 41.4087 13.8105 41.4104 14.0092C41.412 14.2078 41.4514 14.4042 41.5263 14.5867C41.6012 14.7692 41.71 14.9343 41.8465 15.0724L45.1238 18.5046H31.4287C31.0498 18.5046 30.6864 18.6622 30.4184 18.9428C30.1505 19.2234 30 19.6039 30 20.0007C30 20.3976 30.1505 20.7781 30.4184 21.0587C30.6864 21.3393 31.0498 21.4969 31.4287 21.4969H45.1238L41.8479 24.9276C41.7114 25.0657 41.6026 25.2308 41.5277 25.4133C41.4529 25.5958 41.4134 25.7922 41.4118 25.9908C41.4101 26.1895 41.4463 26.3865 41.5181 26.5704C41.59 26.7542 41.696 26.9213 41.8302 27.0618C41.9643 27.2023 42.1238 27.3134 42.2994 27.3886C42.475 27.4638 42.6631 27.5017 42.8528 27.4999C43.0425 27.4982 43.23 27.4569 43.4043 27.3785C43.5786 27.3001 43.7362 27.1861 43.868 27.0432L49.5827 21.0585C49.715 20.9193 49.8199 20.754 49.8913 20.5723Z" fill="white"/>
</svg>
