<svg width="80" height="80" viewBox="0 0 80 80" fill="none" xmlns="http://www.w3.org/2000/svg">
<circle cx="40" cy="40" r="40" fill="#EAE3F3"/>
<path d="M40 50.4167L43.25 43.2917L50.4166 40.0001L43.25 36.7501L40 29.5834L36.7291 36.7501L29.5833 40.0001L36.7291 43.2917L40 50.4167ZM32.0208 20.7501C34.5522 19.7083 37.2626 19.1705 40 19.1667C42.7291 19.1667 45.4375 19.7084 47.9791 20.7501C50.5 21.7917 52.7916 23.3334 54.7291 25.2709C56.6666 27.2084 58.2083 29.5001 59.25 32.0209C60.2916 34.5626 60.8333 37.2709 60.8333 40.0001C60.8333 45.5209 58.6458 50.8334 54.7291 54.7292C52.7971 56.6667 50.5013 58.2033 47.9736 59.2509C45.4459 60.2984 42.7361 60.8362 40 60.8334C37.2626 60.8297 34.5522 60.2919 32.0208 59.2501C29.4959 58.2007 27.2023 56.6645 25.2708 54.7292C23.3333 52.7972 21.7967 50.5014 20.7492 47.9737C19.7016 45.446 19.1638 42.7362 19.1666 40.0001C19.1666 34.4792 21.3541 29.1667 25.2708 25.2709C27.2083 23.3334 29.5 21.7917 32.0208 20.7501ZM28.2083 51.7917C31.3333 54.9167 35.5833 56.6667 40 56.6667C44.4166 56.6667 48.6666 54.9167 51.7916 51.7917C54.9166 48.6667 56.6666 44.4167 56.6666 40.0001C56.6666 35.5834 54.9166 31.3334 51.7916 28.2084C50.2427 26.6612 48.4041 25.4343 46.3808 24.5978C44.3575 23.7613 42.1893 23.3317 40 23.3334C35.5833 23.3334 31.3333 25.0834 28.2083 28.2084C26.6611 29.7574 25.4342 31.596 24.5977 33.6193C23.7612 35.6425 23.3316 37.8107 23.3333 40.0001C23.3333 44.4167 25.0833 48.6667 28.2083 51.7917Z" fill="black"/>
</svg>
